<?xml version="1.0" standalone="no"?><!DOCTYPE svg PUBLIC "-//W3C//DTD SVG 1.1//EN" "http://www.w3.org/Graphics/SVG/1.1/DTD/svg11.dtd"><svg t="1554956440747" class="icon" style="" viewBox="0 0 1024 1024" version="1.1" xmlns="http://www.w3.org/2000/svg" p-id="1677" xmlns:xlink="http://www.w3.org/1999/xlink" width="200" height="200"><defs><style type="text/css"></style></defs><path d="M869.062743 73.293283H154.93521c-51.030234 0-92.546789 41.46846-92.546789 92.449575v527.715937c0 51.02921 41.516556 92.497671 92.546789 92.497671h41.955554v126.502135c0 15.465227 9.318226 29.418007 23.612791 35.320437 4.731768 2.000564 9.658987 2.927679 14.635325 2.927679a38.198997 38.198997 0 0 0 27.027563-11.220553L439.991478 761.660106c14.97711-14.927991 14.97711-39.125089 0-54.103222-14.879895-14.976086-39.175231-14.976086-54.103222 0L273.386996 820.058145v-72.350819c0-21.12411-17.172101-38.248116-38.248116-38.248115h-80.20367c-8.879228 0-16.050558-7.219425-16.050558-16.001439V165.742858c0-8.782014 7.17133-15.953344 16.050558-15.953343h714.12651c8.879228 0 16.051581 7.17133 16.051581 15.953343v527.715937c0 8.782014-7.172353 16.001439-16.051581 16.001439H512.583796c-21.12411 0-38.248116 17.124006-38.248116 38.248116 0 21.076014 17.124006 38.248116 38.248116 38.248116h356.477924c51.030234 0 92.546789-41.467437 92.546789-92.497671V165.742858c0.001023-50.981115-41.515532-92.449575-92.545766-92.449575z" fill="#ffffff" p-id="1678"></path><path d="M272.510022 425.233867c0 34.784224 28.247344 62.98245 63.031569 62.98245 34.83232 0 62.98245-28.198226 62.98245-62.98245 0-34.735106-28.15013-63.031569-62.98245-63.031568-34.785248 0-63.031569 28.296463-63.031569 63.031568zM575.031057 425.233867c0-34.735106-28.15013-63.031569-62.983473-63.031568-34.783201 0-63.031569 28.29544-63.031569 63.031568 0 34.784224 28.247344 62.98245 63.031569 62.98245 34.833343 0 62.983473-28.198226 62.983473-62.98245zM751.487931 425.233867c0-34.735106-28.198226-63.031569-62.98245-63.031568-34.783201 0-62.98245 28.29544-62.98245 63.031568 0 34.784224 28.199249 62.98245 62.98245 62.98245 34.784224 0 62.98245-28.198226 62.98245-62.98245z" fill="#ffffff" p-id="1679"></path></svg>